<svg width="278" height="276" viewBox="0 0 278 276" fill="none" xmlns="http://www.w3.org/2000/svg">
<path d="M107.599 157.552L107.716 157.774L107.863 157.979L128.273 186.502C141.17 204.527 160.252 217.173 181.878 222.026L182.698 218.373L181.878 222.026C188.582 223.531 195.207 219.262 196.693 212.596C201.34 191.749 198.611 169.796 188.911 150.753L181.986 137.158C175.506 124.436 168.04 112.241 159.655 100.685L147.941 84.5409C135.523 67.4249 117.088 55.5307 96.3988 51.202C90.4203 49.9512 84.4396 53.4854 82.6986 59.3668C76.4748 80.3911 78.7336 103.017 88.9908 122.396L107.599 157.552Z" stroke="url(#paint0_linear_982_16)" stroke-width="7.48822"/>
<path d="M107.599 157.552L107.716 157.774L107.863 157.979L128.273 186.502C141.17 204.527 160.252 217.173 181.878 222.026L182.698 218.373L181.878 222.026C188.582 223.531 195.207 219.262 196.693 212.596C201.34 191.749 198.611 169.796 188.911 150.753L181.986 137.158C175.506 124.436 168.04 112.241 159.655 100.685L147.941 84.5409C135.523 67.4249 117.088 55.5307 96.3988 51.202C90.4203 49.9512 84.4396 53.4854 82.6986 59.3668C76.4748 80.3911 78.7336 103.017 88.9908 122.396L107.599 157.552Z" stroke="black" stroke-opacity="0.2" stroke-width="7.48822"/>
<path d="M171.524 116.903L171.407 116.682L171.261 116.478L150.664 87.6845C137.759 69.6433 118.681 56.9659 97.0492 52.0565C90.3045 50.5258 83.6315 54.8283 82.155 61.542C77.5634 82.4199 80.3317 104.384 90.0516 123.437L97.0963 137.245C103.609 150.012 111.107 162.252 119.522 173.854L131.39 190.217C143.816 207.35 162.249 219.276 182.946 223.658C188.961 224.931 194.985 221.37 196.721 215.445C202.891 194.386 200.593 171.75 190.316 152.36L171.524 116.903Z" stroke="url(#paint1_linear_982_16)" stroke-width="7.48819"/>
<path d="M171.524 116.903L171.407 116.682L171.261 116.478L150.664 87.6845C137.759 69.6433 118.681 56.9659 97.0492 52.0565C90.3045 50.5258 83.6315 54.8283 82.155 61.542C77.5634 82.4199 80.3317 104.384 90.0516 123.437L97.0963 137.245C103.609 150.012 111.107 162.252 119.522 173.854L131.39 190.217C143.816 207.35 162.249 219.276 182.946 223.658C188.961 224.931 194.985 221.37 196.721 215.445C202.891 194.386 200.593 171.75 190.316 152.36L171.524 116.903Z" stroke="#571B5B" stroke-width="7.48819"/>
<path d="M137.653 170.829L137.904 170.838L138.155 170.814L173.062 167.4C195.12 165.243 215.613 155.04 230.629 138.738C235.284 133.685 234.9 125.813 229.87 121.193C214.139 106.746 193.763 98.1323 172.421 97.011L157.185 96.2105C142.927 95.4615 128.633 95.8303 114.433 97.3135L94.5949 99.3857C73.5627 101.583 54.045 111.6 39.9513 127.353C35.8789 131.906 35.9492 138.852 40.1721 143.301C55.2679 159.203 75.9917 168.559 97.9031 169.366L137.653 170.829Z" stroke="url(#paint2_linear_982_16)" stroke-width="7.48822"/>
<path d="M137.653 170.829L137.904 170.838L138.155 170.814L173.062 167.4C195.12 165.243 215.613 155.04 230.629 138.738C235.284 133.685 234.9 125.813 229.87 121.193C214.139 106.746 193.763 98.1323 172.421 97.011L157.185 96.2105C142.927 95.4615 128.633 95.8303 114.433 97.3135L94.5949 99.3857C73.5627 101.583 54.045 111.6 39.9513 127.353C35.8789 131.906 35.9492 138.852 40.1721 143.301C55.2679 159.203 75.9917 168.559 97.9031 169.366L137.653 170.829Z" stroke="black" stroke-opacity="0.2" stroke-width="7.48822"/>
<path d="M132.979 95.2151L132.727 95.2121L132.477 95.2428L97.6654 99.5194C75.6669 102.222 55.4333 112.929 40.8251 129.597C36.2966 134.764 36.8754 142.624 42.0182 147.118C58.1022 161.172 78.6853 169.278 100.048 169.871L115.3 170.294C129.571 170.69 143.852 169.967 158.011 168.133L177.792 165.571C198.763 162.854 218.027 152.356 231.726 136.259C235.685 131.607 235.442 124.665 231.111 120.322C215.626 104.799 194.677 95.9577 172.752 95.6938L132.979 95.2151Z" stroke="url(#paint3_linear_982_16)" stroke-width="7.48822"/>
<path d="M132.979 95.2151L132.727 95.2121L132.477 95.2428L97.6654 99.5194C75.6669 102.222 55.4333 112.929 40.8251 129.597C36.2966 134.764 36.8754 142.624 42.0182 147.118C58.1022 161.172 78.6853 169.278 100.048 169.871L115.3 170.294C129.571 170.69 143.852 169.967 158.011 168.133L177.792 165.571C198.763 162.854 218.027 152.356 231.726 136.259C235.685 131.607 235.442 124.665 231.111 120.322C215.626 104.799 194.677 95.9577 172.752 95.6938L132.979 95.2151Z" stroke="#571B5B" stroke-width="7.48822"/>
<path d="M102.088 113.062L102.193 112.833L102.328 112.62L121.095 82.9904C132.954 64.2663 151.292 50.5636 172.609 44.4967C179.218 42.616 186.073 46.5038 187.933 53.0751C193.749 73.6271 192.264 95.699 183.655 115.259L177.509 129.224C171.757 142.291 164.991 154.888 157.272 166.899L146.489 183.679C135.056 201.468 117.323 214.384 96.9106 219.874C91.0123 221.461 84.8416 218.27 82.7713 212.496C75.3705 191.857 76.3483 169.139 85.4951 149.212L102.088 113.062Z" stroke="url(#paint4_linear_982_16)" stroke-width="7.48821"/>
<path d="M102.088 113.062L102.193 112.833L102.328 112.62L121.095 82.9904C132.954 64.2663 151.292 50.5636 172.609 44.4967C179.218 42.616 186.073 46.5038 187.933 53.0751C193.749 73.6271 192.264 95.699 183.655 115.259L177.509 129.224C171.757 142.291 164.991 154.888 157.272 166.899L146.489 183.679C135.056 201.468 117.323 214.384 96.9106 219.874C91.0123 221.461 84.8416 218.27 82.7713 212.496C75.3705 191.857 76.3483 169.139 85.4951 149.212L102.088 113.062Z" stroke="black" stroke-opacity="0.2" stroke-width="7.48821"/>
<path d="M169.193 148.135L169.104 148.371L168.984 148.592L152.327 179.457C141.8 198.962 124.461 213.908 103.618 221.445C97.1568 223.781 90.0471 220.38 87.7343 213.954C80.5009 193.857 80.4452 171.736 87.6713 151.623L92.8302 137.265C97.6577 123.828 103.53 110.791 110.394 98.2719L119.982 80.7818C130.148 62.239 146.939 48.1195 166.92 41.2214C172.693 39.2282 179.071 41.9816 181.538 47.5971C190.358 67.671 190.965 90.4012 183.228 110.917L169.193 148.135Z" stroke="url(#paint5_linear_982_16)" stroke-width="7.48822"/>
<path d="M169.193 148.135L169.104 148.371L168.984 148.592L152.327 179.457C141.8 198.962 124.461 213.908 103.618 221.445C97.1568 223.781 90.0471 220.38 87.7343 213.954C80.5009 193.857 80.4452 171.736 87.6713 151.623L92.8302 137.265C97.6577 123.828 103.53 110.791 110.394 98.2719L119.982 80.7818C130.148 62.239 146.939 48.1195 166.92 41.2214C172.693 39.2282 179.071 41.9816 181.538 47.5971C190.358 67.671 190.965 90.4012 183.228 110.917L169.193 148.135Z" stroke="#571B5B" stroke-width="7.48822"/>
<g filter="url(#filter0_d_982_16)">
<path d="M146.44 130.959L144.814 128.343C143.458 126.16 141.373 124.527 138.929 123.734L138.263 123.518C136.283 122.876 134.141 122.945 132.207 123.713C129.835 124.654 127.978 126.564 127.105 128.963L126.863 129.628C125.672 132.897 126.175 136.543 128.207 139.367L130.208 142.15C132.534 145.383 136.592 146.876 140.458 145.92C143.22 145.238 145.546 143.382 146.825 140.841L146.878 140.735C148.445 137.623 148.279 133.919 146.44 130.959Z" fill="url(#paint6_linear_982_16)" shape-rendering="crispEdges"/>
</g>
<path d="M107.598 157.16L107.716 157.383L107.862 157.588L128.272 186.111C141.169 204.136 160.251 216.781 181.877 221.635L182.697 217.982L181.877 221.635C188.581 223.139 195.206 218.871 196.692 212.205C201.339 191.357 198.61 169.405 188.91 150.361L181.985 136.766C175.505 124.044 168.039 111.85 159.654 100.294L147.941 84.1496C135.522 67.0336 117.088 55.1394 96.3981 50.8107C90.4197 49.5599 84.439 53.0941 82.698 58.9755C76.4742 79.9998 78.7329 102.626 88.9902 122.005L107.598 157.16Z" stroke="url(#paint7_linear_982_16)" stroke-width="7.48822"/>
<path d="M107.598 157.16L107.716 157.383L107.862 157.588L128.272 186.111C141.169 204.136 160.251 216.781 181.877 221.635L182.697 217.982L181.877 221.635C188.581 223.139 195.206 218.871 196.692 212.205C201.339 191.357 198.61 169.405 188.91 150.361L181.985 136.766C175.505 124.044 168.039 111.85 159.654 100.294L147.941 84.1496C135.522 67.0336 117.088 55.1394 96.3981 50.8107C90.4197 49.5599 84.439 53.0941 82.698 58.9755C76.4742 79.9998 78.7329 102.626 88.9902 122.005L107.598 157.16Z" stroke="black" stroke-opacity="0.2" stroke-width="7.48822"/>
<path d="M171.524 116.512L171.407 116.291L171.261 116.087L150.664 87.2932C137.758 69.2521 118.681 56.5746 97.0491 51.6653C90.3044 50.1345 83.6314 54.437 82.1549 61.1507C77.5633 82.0286 80.3315 103.993 90.0515 123.045L97.0962 136.854C103.609 149.621 111.107 161.861 119.522 173.463L131.39 189.825C143.816 206.958 162.249 218.885 182.946 223.266C188.961 224.54 194.985 220.979 196.721 215.054C202.891 193.994 200.593 171.358 190.316 151.969L171.524 116.512Z" stroke="url(#paint8_linear_982_16)" stroke-width="7.48819"/>
<path d="M171.524 116.512L171.407 116.291L171.261 116.087L150.664 87.2932C137.758 69.2521 118.681 56.5746 97.0491 51.6653C90.3044 50.1345 83.6314 54.437 82.1549 61.1507C77.5633 82.0286 80.3315 103.993 90.0515 123.045L97.0962 136.854C103.609 149.621 111.107 161.861 119.522 173.463L131.39 189.825C143.816 206.958 162.249 218.885 182.946 223.266C188.961 224.54 194.985 220.979 196.721 215.054C202.891 193.994 200.593 171.358 190.316 151.969L171.524 116.512Z" stroke="#571B5B" stroke-width="7.48819"/>
<path d="M137.652 170.438L137.904 170.447L138.154 170.422L173.061 167.009C195.12 164.852 215.612 154.649 230.628 138.347C235.283 133.294 234.899 125.422 229.869 120.802C214.138 106.354 193.762 97.741 172.42 96.6198L157.184 95.8193C142.927 95.0702 128.632 95.439 114.432 96.9222L94.5942 98.9944C73.562 101.191 54.0443 111.209 39.9507 126.962C35.8782 131.514 35.9485 138.461 40.1714 142.909C55.2672 158.811 75.991 168.168 97.9024 168.975L137.652 170.438Z" stroke="url(#paint9_linear_982_16)" stroke-width="7.48822"/>
<path d="M137.652 170.438L137.904 170.447L138.154 170.422L173.061 167.009C195.12 164.852 215.612 154.649 230.628 138.347C235.283 133.294 234.899 125.422 229.869 120.802C214.138 106.354 193.762 97.741 172.42 96.6198L157.184 95.8193C142.927 95.0702 128.632 95.439 114.432 96.9222L94.5942 98.9944C73.562 101.191 54.0443 111.209 39.9507 126.962C35.8782 131.514 35.9485 138.461 40.1714 142.909C55.2672 158.811 75.991 168.168 97.9024 168.975L137.652 170.438Z" stroke="black" stroke-opacity="0.2" stroke-width="7.48822"/>
<path d="M132.979 94.8239L132.727 94.8209L132.477 94.8516L97.6654 99.1281C75.6669 101.831 55.4333 112.538 40.8251 129.206C36.2966 134.373 36.8754 142.233 42.0182 146.727C58.1022 160.781 78.6853 168.887 100.048 169.48L115.3 169.903C129.571 170.299 143.852 169.576 158.011 167.742L177.792 165.179C198.763 162.463 218.027 151.965 231.726 135.868C235.685 131.216 235.442 124.274 231.111 119.931C215.626 104.407 194.677 95.5665 172.752 95.3026L132.979 94.8239Z" stroke="url(#paint10_linear_982_16)" stroke-width="7.48822"/>
<path d="M132.979 94.8239L132.727 94.8209L132.477 94.8516L97.6654 99.1281C75.6669 101.831 55.4333 112.538 40.8251 129.206C36.2966 134.373 36.8754 142.233 42.0182 146.727C58.1022 160.781 78.6853 168.887 100.048 169.48L115.3 169.903C129.571 170.299 143.852 169.576 158.011 167.742L177.792 165.179C198.763 162.463 218.027 151.965 231.726 135.868C235.685 131.216 235.442 124.274 231.111 119.931C215.626 104.407 194.677 95.5665 172.752 95.3026L132.979 94.8239Z" stroke="#571B5B" stroke-width="7.48822"/>
<path d="M102.088 112.671L102.193 112.442L102.327 112.229L121.094 82.5991C132.954 63.875 151.291 50.1723 172.609 44.1054C179.217 42.2247 186.072 46.1125 187.932 52.6838C193.748 73.2358 192.263 95.3077 183.654 114.868L177.508 128.833C171.756 141.9 164.99 154.497 157.272 166.507L146.488 183.287C135.055 201.077 117.322 213.993 96.9099 219.483C91.0116 221.069 84.8409 217.878 82.7706 212.105C75.3698 191.465 76.3476 168.748 85.4944 148.821L102.088 112.671Z" stroke="url(#paint11_linear_982_16)" stroke-width="7.48821"/>
<path d="M102.088 112.671L102.193 112.442L102.327 112.229L121.094 82.5991C132.954 63.875 151.291 50.1723 172.609 44.1054C179.217 42.2247 186.072 46.1125 187.932 52.6838C193.748 73.2358 192.263 95.3077 183.654 114.868L177.508 128.833C171.756 141.9 164.99 154.497 157.272 166.507L146.488 183.287C135.055 201.077 117.322 213.993 96.9099 219.483C91.0116 221.069 84.8409 217.878 82.7706 212.105C75.3698 191.465 76.3476 168.748 85.4944 148.821L102.088 112.671Z" stroke="black" stroke-opacity="0.2" stroke-width="7.48821"/>
<path d="M169.193 147.744L169.104 147.979L168.984 148.201L152.327 179.066C141.8 198.57 124.461 213.517 103.618 221.054C97.1567 223.39 90.047 219.989 87.7342 213.563C80.5008 193.466 80.4451 171.344 87.6713 151.232L92.8301 136.873C97.6576 123.437 103.53 110.4 110.394 97.8807L119.982 80.3906C130.148 61.8478 146.939 47.7283 166.919 40.8302C172.693 38.837 179.071 41.5904 181.538 47.2059C190.358 67.2798 190.965 90.01 183.228 110.526L169.193 147.744Z" stroke="url(#paint12_linear_982_16)" stroke-width="7.48822"/>
<path d="M169.193 147.744L169.104 147.979L168.984 148.201L152.327 179.066C141.8 198.57 124.461 213.517 103.618 221.054C97.1567 223.39 90.047 219.989 87.7342 213.563C80.5008 193.466 80.4451 171.344 87.6713 151.232L92.8301 136.873C97.6576 123.437 103.53 110.4 110.394 97.8807L119.982 80.3906C130.148 61.8478 146.939 47.7283 166.919 40.8302C172.693 38.837 179.071 41.5904 181.538 47.2059C190.358 67.2798 190.965 90.01 183.228 110.526L169.193 147.744Z" stroke="#571B5B" stroke-width="7.48822"/>
<g filter="url(#filter1_d_982_16)">
<path d="M146.44 130.568L144.814 127.952C143.458 125.769 141.373 124.136 138.929 123.343L138.263 123.127C136.283 122.485 134.141 122.554 132.207 123.321C129.835 124.263 127.978 126.173 127.105 128.571L126.862 129.236C125.672 132.505 126.175 136.152 128.207 138.976L130.208 141.759C132.534 144.991 136.592 146.484 140.458 145.529C143.22 144.846 145.546 142.991 146.825 140.45L146.878 140.344C148.445 137.232 148.279 133.528 146.44 130.568Z" fill="url(#paint13_linear_982_16)" shape-rendering="crispEdges"/>
</g>
<defs>
<filter id="filter0_d_982_16" x="126.228" y="123.082" width="23.8993" height="25.0616" filterUnits="userSpaceOnUse" color-interpolation-filters="sRGB">
<feFlood flood-opacity="0" result="BackgroundImageFix"/>
<feColorMatrix in="SourceAlpha" type="matrix" values="0 0 0 0 0 0 0 0 0 0 0 0 0 0 0 0 0 0 127 0" result="hardAlpha"/>
<feOffset dx="1.21156" dy="0.969245"/>
<feGaussianBlur stdDeviation="0.484623"/>
<feComposite in2="hardAlpha" operator="out"/>
<feColorMatrix type="matrix" values="0 0 0 0 0 0 0 0 0 0 0 0 0 0 0 0 0 0 0.25 0"/>
<feBlend mode="normal" in2="BackgroundImageFix" result="effect1_dropShadow_982_16"/>
<feBlend mode="normal" in="SourceGraphic" in2="effect1_dropShadow_982_16" result="shape"/>
</filter>
<filter id="filter1_d_982_16" x="126.228" y="122.691" width="23.8993" height="25.0616" filterUnits="userSpaceOnUse" color-interpolation-filters="sRGB">
<feFlood flood-opacity="0" result="BackgroundImageFix"/>
<feColorMatrix in="SourceAlpha" type="matrix" values="0 0 0 0 0 0 0 0 0 0 0 0 0 0 0 0 0 0 127 0" result="hardAlpha"/>
<feOffset dx="1.21156" dy="0.969245"/>
<feGaussianBlur stdDeviation="0.484623"/>
<feComposite in2="hardAlpha" operator="out"/>
<feColorMatrix type="matrix" values="0 0 0 0 0 0 0 0 0 0 0 0 0 0 0 0 0 0 0.25 0"/>
<feBlend mode="normal" in2="BackgroundImageFix" result="effect1_dropShadow_982_16"/>
<feBlend mode="normal" in="SourceGraphic" in2="effect1_dropShadow_982_16" result="shape"/>
</filter>
<linearGradient id="paint0_linear_982_16" x1="88.0502" y1="53.5561" x2="169.414" y2="193.702" gradientUnits="userSpaceOnUse">
<stop stop-color="#F7BCFC"/>
<stop offset="0.427083" stop-color="#F7BCFC" stop-opacity="0"/>
</linearGradient>
<linearGradient id="paint1_linear_982_16" x1="191.367" y1="221.337" x2="109.567" y2="80.4651" gradientUnits="userSpaceOnUse">
<stop stop-color="#F7BCFC"/>
<stop offset="0.427083" stop-color="#F7BCFC" stop-opacity="0"/>
</linearGradient>
<linearGradient id="paint2_linear_982_16" x1="37.8157" y1="135.761" x2="199.868" y2="135.37" gradientUnits="userSpaceOnUse">
<stop stop-color="#F7BCFC"/>
<stop offset="0.427083" stop-color="#F7BCFC" stop-opacity="0"/>
</linearGradient>
<linearGradient id="paint3_linear_982_16" x1="233.653" y1="127.801" x2="71.6603" y2="132.203" gradientUnits="userSpaceOnUse">
<stop stop-color="#F7BCFC"/>
<stop offset="0.427083" stop-color="#F7BCFC" stop-opacity="0"/>
</linearGradient>
<linearGradient id="paint4_linear_982_16" x1="88.4424" y1="217.995" x2="161.764" y2="73.4792" gradientUnits="userSpaceOnUse">
<stop stop-color="#F7BCFC"/>
<stop offset="0.427083" stop-color="#F7BCFC" stop-opacity="0"/>
</linearGradient>
<linearGradient id="paint5_linear_982_16" x1="175.498" y1="42.5062" x2="112.418" y2="191.777" gradientUnits="userSpaceOnUse">
<stop stop-color="#F7BCFC"/>
<stop offset="0.427083" stop-color="#F7BCFC" stop-opacity="0"/>
</linearGradient>
<linearGradient id="paint6_linear_982_16" x1="131.98" y1="128.024" x2="144.681" y2="148.655" gradientUnits="userSpaceOnUse">
<stop stop-color="#FECD07"/>
<stop offset="1" stop-color="#FECD07" stop-opacity="0"/>
</linearGradient>
<linearGradient id="paint7_linear_982_16" x1="88.0495" y1="53.1648" x2="169.414" y2="193.311" gradientUnits="userSpaceOnUse">
<stop stop-color="#F7BCFC"/>
<stop offset="0.427083" stop-color="#F7BCFC" stop-opacity="0"/>
</linearGradient>
<linearGradient id="paint8_linear_982_16" x1="191.367" y1="220.946" x2="109.566" y2="80.0739" gradientUnits="userSpaceOnUse">
<stop stop-color="#F7BCFC"/>
<stop offset="0.427083" stop-color="#F7BCFC" stop-opacity="0"/>
</linearGradient>
<linearGradient id="paint9_linear_982_16" x1="37.8151" y1="135.369" x2="199.867" y2="134.979" gradientUnits="userSpaceOnUse">
<stop stop-color="#F7BCFC"/>
<stop offset="0.427083" stop-color="#F7BCFC" stop-opacity="0"/>
</linearGradient>
<linearGradient id="paint10_linear_982_16" x1="233.653" y1="127.41" x2="71.6602" y2="131.812" gradientUnits="userSpaceOnUse">
<stop stop-color="#F7BCFC"/>
<stop offset="0.427083" stop-color="#F7BCFC" stop-opacity="0"/>
</linearGradient>
<linearGradient id="paint11_linear_982_16" x1="88.4417" y1="217.604" x2="161.764" y2="73.0879" gradientUnits="userSpaceOnUse">
<stop stop-color="#F7BCFC"/>
<stop offset="0.427083" stop-color="#F7BCFC" stop-opacity="0"/>
</linearGradient>
<linearGradient id="paint12_linear_982_16" x1="175.498" y1="42.115" x2="112.418" y2="191.386" gradientUnits="userSpaceOnUse">
<stop stop-color="#F7BCFC"/>
<stop offset="0.427083" stop-color="#F7BCFC" stop-opacity="0"/>
</linearGradient>
<linearGradient id="paint13_linear_982_16" x1="131.98" y1="127.633" x2="144.68" y2="148.263" gradientUnits="userSpaceOnUse">
<stop stop-color="#FECD07"/>
<stop offset="1" stop-color="#FECD07" stop-opacity="0"/>
</linearGradient>
</defs>
</svg>
