<svg width="592" height="469" viewBox="0 0 592 469" fill="none" xmlns="http://www.w3.org/2000/svg">
<path d="M287.142 154.195L287.456 154.789L287.847 155.335L342.286 231.415C376.688 279.493 427.585 313.223 485.268 326.169C503.15 330.182 520.821 318.796 524.784 301.017C537.178 245.409 529.899 186.854 504.027 136.061L485.556 99.7979C468.272 65.8649 448.357 33.3377 425.993 2.51481L394.749 -40.547C361.624 -86.2006 312.455 -117.926 257.269 -129.472C241.322 -132.808 225.37 -123.381 220.726 -107.694C204.125 -51.6157 210.15 8.73414 237.509 60.4239L287.142 154.195Z" stroke="url(#paint0_linear_306_710)" stroke-width="19.9734"/>
<path d="M287.142 154.195L287.456 154.789L287.847 155.335L342.286 231.415C376.688 279.493 427.585 313.223 485.268 326.169C503.15 330.182 520.821 318.796 524.784 301.017C537.178 245.409 529.899 186.854 504.027 136.061L485.556 99.7979C468.272 65.8649 448.357 33.3377 425.993 2.51481L394.749 -40.547C361.624 -86.2006 312.455 -117.926 257.269 -129.472C241.322 -132.808 225.37 -123.381 220.726 -107.694C204.125 -51.6157 210.15 8.73414 237.509 60.4239L287.142 154.195Z" stroke="black" stroke-opacity="0.2" stroke-width="19.9734"/>
<path d="M457.652 45.7741L457.339 45.1839L456.951 44.6406L402.012 -32.1621C367.59 -80.2833 316.704 -114.098 259.005 -127.193C241.015 -131.276 223.216 -119.8 219.278 -101.892C207.031 -46.2043 214.414 12.3806 240.34 63.2001L259.131 100.032C276.503 134.085 296.503 166.733 318.947 197.679L350.602 241.323C383.747 287.022 432.913 318.833 488.119 330.521C504.161 333.917 520.23 324.419 524.861 308.614C541.317 252.443 535.187 192.066 507.777 140.348L457.652 45.7741Z" stroke="url(#paint1_linear_306_710)" stroke-width="19.9734"/>
<path d="M457.652 45.7741L457.339 45.1839L456.951 44.6406L402.012 -32.1621C367.59 -80.2833 316.704 -114.098 259.005 -127.193C241.015 -131.276 223.216 -119.8 219.278 -101.892C207.031 -46.2043 214.414 12.3806 240.34 63.2001L259.131 100.032C276.503 134.085 296.503 166.733 318.947 197.679L350.602 241.323C383.747 287.022 432.913 318.833 488.119 330.521C504.161 333.917 520.23 324.419 524.861 308.614C541.317 252.443 535.187 192.066 507.777 140.348L457.652 45.7741Z" stroke="#571B5B" stroke-width="19.9734"/>
<path d="M367.305 189.61L367.976 189.635L368.645 189.569L461.752 180.464C520.589 174.71 575.249 147.496 615.302 104.015C627.718 90.5355 626.693 69.5389 613.277 57.217C571.317 18.6798 516.968 -4.29441 460.043 -7.28509L419.403 -9.42023C381.374 -11.4182 343.247 -10.4345 305.371 -6.47825L252.457 -0.951089C196.357 4.90875 144.298 31.6283 106.706 73.6475C95.843 85.7894 96.0307 104.318 107.294 116.183C147.559 158.599 202.836 183.556 261.281 185.708L367.305 189.61Z" stroke="url(#paint2_linear_306_710)" stroke-width="19.9734"/>
<path d="M367.305 189.61L367.976 189.635L368.645 189.569L461.752 180.464C520.589 174.71 575.249 147.496 615.302 104.015C627.718 90.5355 626.693 69.5389 613.277 57.217C571.317 18.6798 516.968 -4.29441 460.043 -7.28509L419.403 -9.42023C381.374 -11.4182 343.247 -10.4345 305.371 -6.47825L252.457 -0.951089C196.357 4.90875 144.298 31.6283 106.706 73.6475C95.843 85.7894 96.0307 104.318 107.294 116.183C147.559 158.599 202.836 183.556 261.281 185.708L367.305 189.61Z" stroke="black" stroke-opacity="0.2" stroke-width="19.9734"/>
<path d="M354.84 -12.0754L354.168 -12.0834L353.502 -12.0016L260.649 -0.594574C201.972 6.61385 148.003 35.1724 109.038 79.6322C96.9595 93.4145 98.5034 114.379 112.221 126.365C155.122 163.852 210.023 185.474 267.005 187.055L307.685 188.183C345.752 189.239 383.843 187.312 421.609 182.42L474.37 175.585C530.307 168.338 581.69 140.338 618.23 97.4012C628.789 84.9942 628.143 66.476 616.589 54.893C575.286 13.4869 519.409 -10.0946 460.929 -10.7985L354.84 -12.0754Z" stroke="url(#paint3_linear_306_710)" stroke-width="19.9734"/>
<path d="M354.84 -12.0754L354.168 -12.0834L353.502 -12.0016L260.649 -0.594574C201.972 6.61385 148.003 35.1724 109.038 79.6322C96.9595 93.4145 98.5034 114.379 112.221 126.365C155.122 163.852 210.023 185.474 267.005 187.055L307.685 188.183C345.752 189.239 383.843 187.312 421.609 182.42L474.37 175.585C530.307 168.338 581.69 140.338 618.23 97.4012C628.789 84.9942 628.143 66.476 616.589 54.893C575.286 13.4869 519.409 -10.0946 460.929 -10.7985L354.84 -12.0754Z" stroke="#571B5B" stroke-width="19.9734"/>
<path d="M272.445 35.5273L272.725 34.917L273.084 34.3497L323.141 -44.6828C354.773 -94.6259 403.686 -131.175 460.546 -147.357C478.172 -152.374 496.458 -142.004 501.418 -124.476C516.932 -69.6575 512.971 -10.7848 490.007 41.3886L473.613 78.6362C458.272 113.491 440.225 147.091 419.637 179.127L390.874 223.884C360.38 271.335 313.08 305.786 258.634 320.429C242.901 324.66 226.442 316.149 220.92 300.749C201.18 245.697 203.788 185.103 228.185 131.951L272.445 35.5273Z" stroke="url(#paint4_linear_306_710)" stroke-width="19.9734"/>
<path d="M272.445 35.5273L272.725 34.917L273.084 34.3497L323.141 -44.6828C354.773 -94.6259 403.686 -131.175 460.546 -147.357C478.172 -152.374 496.458 -142.004 501.418 -124.476C516.932 -69.6575 512.971 -10.7848 490.007 41.3886L473.613 78.6362C458.272 113.491 440.225 147.091 419.637 179.127L390.874 223.884C360.38 271.335 313.08 305.786 258.634 320.429C242.901 324.66 226.442 316.149 220.92 300.749C201.18 245.697 203.788 185.103 228.185 131.951L272.445 35.5273Z" stroke="black" stroke-opacity="0.2" stroke-width="19.9734"/>
<path d="M451.434 129.079L451.197 129.707L450.878 130.298L406.447 212.625C378.369 264.649 332.121 304.516 276.526 324.619C259.292 330.85 240.328 321.779 234.159 304.64C214.866 251.034 214.717 192.029 233.992 138.383L247.752 100.084C260.628 64.2455 276.292 29.4706 294.599 -3.92171L320.175 -50.5732C347.291 -100.033 392.077 -137.694 445.371 -156.093C460.771 -161.41 477.782 -154.065 484.364 -139.087C507.89 -85.5437 509.508 -24.9155 488.871 29.8065L451.434 129.079Z" stroke="url(#paint5_linear_306_710)" stroke-width="19.9734"/>
<path d="M451.434 129.079L451.197 129.707L450.878 130.298L406.447 212.625C378.369 264.649 332.121 304.516 276.526 324.619C259.292 330.85 240.328 321.779 234.159 304.64C214.866 251.034 214.717 192.029 233.992 138.383L247.752 100.084C260.628 64.2455 276.292 29.4706 294.599 -3.92171L320.175 -50.5732C347.291 -100.033 392.077 -137.694 445.371 -156.093C460.771 -161.41 477.782 -154.065 484.364 -139.087C507.89 -85.5437 509.508 -24.9155 488.871 29.8065L451.434 129.079Z" stroke="#571B5B" stroke-width="19.9734"/>
<g filter="url(#filter0_d_306_710)">
<path d="M390.745 83.2659L386.409 76.2868C382.792 70.4641 377.231 66.1095 370.71 63.9943L368.935 63.4182C363.654 61.7051 357.941 61.8883 352.781 63.9361C346.454 66.4472 341.501 71.5431 339.172 77.9395L338.526 79.7136C335.351 88.433 336.693 98.1585 342.112 105.692L347.451 113.114C353.653 121.737 364.478 125.719 374.789 123.171C382.156 121.35 388.36 116.401 391.771 109.623L391.913 109.341C396.092 101.039 395.65 91.1609 390.745 83.2659Z" fill="url(#paint6_linear_306_710)" shape-rendering="crispEdges"/>
</g>
<defs>
<filter id="filter0_d_306_710" x="336.832" y="62.2545" width="63.7468" height="66.8471" filterUnits="userSpaceOnUse" color-interpolation-filters="sRGB">
<feFlood flood-opacity="0" result="BackgroundImageFix"/>
<feColorMatrix in="SourceAlpha" type="matrix" values="0 0 0 0 0 0 0 0 0 0 0 0 0 0 0 0 0 0 127 0" result="hardAlpha"/>
<feOffset dx="3.2316" dy="2.58528"/>
<feGaussianBlur stdDeviation="1.29264"/>
<feComposite in2="hardAlpha" operator="out"/>
<feColorMatrix type="matrix" values="0 0 0 0 0 0 0 0 0 0 0 0 0 0 0 0 0 0 0.25 0"/>
<feBlend mode="normal" in2="BackgroundImageFix" result="effect1_dropShadow_306_710"/>
<feBlend mode="normal" in="SourceGraphic" in2="effect1_dropShadow_306_710" result="shape"/>
</filter>
<linearGradient id="paint0_linear_306_710" x1="235" y1="-123.193" x2="452.024" y2="250.62" gradientUnits="userSpaceOnUse">
<stop stop-color="#F7BCFC"/>
<stop offset="0.427083" stop-color="#F7BCFC" stop-opacity="0"/>
</linearGradient>
<linearGradient id="paint1_linear_306_710" x1="510.58" y1="324.331" x2="292.392" y2="-51.418" gradientUnits="userSpaceOnUse">
<stop stop-color="#F7BCFC"/>
<stop offset="0.427083" stop-color="#F7BCFC" stop-opacity="0"/>
</linearGradient>
<linearGradient id="paint2_linear_306_710" x1="101.009" y1="96.072" x2="533.252" y2="95.0307" gradientUnits="userSpaceOnUse">
<stop stop-color="#F7BCFC"/>
<stop offset="0.427083" stop-color="#F7BCFC" stop-opacity="0"/>
</linearGradient>
<linearGradient id="paint3_linear_306_710" x1="623.37" y1="74.8426" x2="191.285" y2="86.5825" gradientUnits="userSpaceOnUse">
<stop stop-color="#F7BCFC"/>
<stop offset="0.427083" stop-color="#F7BCFC" stop-opacity="0"/>
</linearGradient>
<linearGradient id="paint4_linear_306_710" x1="236.046" y1="315.417" x2="431.619" y2="-70.0518" gradientUnits="userSpaceOnUse">
<stop stop-color="#F7BCFC"/>
<stop offset="0.427083" stop-color="#F7BCFC" stop-opacity="0"/>
</linearGradient>
<linearGradient id="paint5_linear_306_710" x1="468.252" y1="-152.666" x2="299.999" y2="245.487" gradientUnits="userSpaceOnUse">
<stop stop-color="#F7BCFC"/>
<stop offset="0.427083" stop-color="#F7BCFC" stop-opacity="0"/>
</linearGradient>
<linearGradient id="paint6_linear_306_710" x1="352.175" y1="75.4367" x2="386.052" y2="130.464" gradientUnits="userSpaceOnUse">
<stop stop-color="#FECD07"/>
<stop offset="1" stop-color="#FECD07" stop-opacity="0"/>
</linearGradient>
</defs>
</svg>
