<svg width="63" height="64" viewBox="0 0 63 64" fill="none" xmlns="http://www.w3.org/2000/svg">
<rect width="63" height="64" fill="#1E1E1E"/>
<rect width="1280" height="140" transform="translate(-1118 -39)" fill="#571B5B"/>
<path d="M57.7502 32.0073C57.7502 17.4211 45.999 5.59808 31.5002 5.59808C17.0015 5.59808 5.25024 17.4211 5.25024 32.0073C5.25024 45.1918 14.8472 56.1171 27.3982 58.0981V39.6426H20.7342V32.0056H27.3982V26.1886C27.3982 19.5701 31.3165 15.9126 37.3137 15.9126C40.1837 15.9126 43.1902 16.4288 43.1902 16.4288V22.9283H39.8775C36.6172 22.9283 35.6022 24.9653 35.6022 27.0548V32.0073H42.8822L41.7185 39.6408H35.6022V58.0981C48.1532 56.1171 57.7502 45.1918 57.7502 32.0073Z" fill="#F7BCFC"/>
</svg>
