<svg width="63" height="64" viewBox="0 0 63 64" fill="none" xmlns="http://www.w3.org/2000/svg">
<rect width="63" height="64" fill="#1E1E1E"/>
<rect width="1280" height="140" transform="translate(-1191 -39)" fill="#571B5B"/>
<path d="M55.1245 11.6973V51.9988C55.1245 52.9202 54.7585 53.8039 54.1069 54.4554C53.4554 55.107 52.5717 55.473 51.6502 55.473H11.3488C10.4273 55.473 9.54365 55.107 8.8921 54.4554C8.24055 53.8039 7.87451 52.9202 7.87451 51.9988V11.6973C7.87451 10.7759 8.24055 9.89216 8.8921 9.24061C9.54365 8.58906 10.4273 8.22302 11.3488 8.22302H51.6502C52.5717 8.22302 53.4554 8.58906 54.1069 9.24061C54.7585 9.89216 55.1245 10.7759 55.1245 11.6973ZM21.7716 26.2892H14.823V48.5245H21.7716V26.2892ZM22.3969 18.6458C22.4006 18.1202 22.3007 17.599 22.1029 17.1121C21.9052 16.6251 21.6134 16.1818 21.2444 15.8076C20.8753 15.4333 20.4361 15.1354 19.9519 14.9309C19.4677 14.7264 18.948 14.6193 18.4224 14.6157H18.2973C17.2284 14.6157 16.2034 15.0403 15.4476 15.7961C14.6918 16.5519 14.2672 17.577 14.2672 18.6458C14.2672 19.7147 14.6918 20.7398 15.4476 21.4956C16.2034 22.2514 17.2284 22.676 18.2973 22.676C18.8229 22.6889 19.346 22.5981 19.8365 22.4089C20.3271 22.2196 20.7755 21.9355 21.1562 21.5728C21.5369 21.2102 21.8425 20.7761 22.0554 20.2953C22.2682 19.8145 22.3843 19.2965 22.3969 18.7709V18.6458ZM48.176 35.0166C48.176 28.3321 43.9235 25.7333 39.6988 25.7333C38.3155 25.6641 36.9383 25.9587 35.7044 26.5878C34.4706 27.2169 33.4232 28.1585 32.6669 29.3188H32.4723V26.2892H25.9407V48.5245H32.8892V36.6981C32.7888 35.4869 33.1703 34.2849 33.9509 33.3534C34.7316 32.4218 35.8482 31.8359 37.0583 31.7229H37.3224C39.532 31.7229 41.1719 33.1127 41.1719 36.6147V48.5245H48.1204L48.176 35.0166Z" fill="#F7BCFC"/>
</svg>
